Patient4_TMGait_0pt4_03_right_13_EMG.mot
version=1
nRows=16
nColumns=33
inDegrees=no
endheader
time	1LAddLong	2LGlutMax	3LGlutMed	4LIliopsoas	5LSemiMemb	6LBicFemLong	7LRecFem	8LVastMed	9LVastLat	10LGasMed	11LTibAnt	12lTibPost	13LPeroneusLong	14LSol	15LExtDigLong	16LFlexDigLong	17RAddLong	18RGlutMax	19RGlutMed	20RIliopsoas	21RSemiMemb	22RBicFemLong	23RRecFem	24RVastMed	25RVastLat	26RGasMed	27RTibAnt	28RTibPost	29RPeroneusLong	30RSol	31RExtDigLong	32RFlexDigLong
17.025	-0.018005	-0.15762	0.016174	0.005341	0.093536	0.08667	-0.19394	0.016785	-0.22125	0	0.015869	-0.00946	0.022583	0.0177	-0.006104	-0.000916	0.002594	-0.018768	0.050201	-0.19623	0.01297	-0.054779	-0.16327	0.009155	-0.021667	0.10559	0.026245	-0.0177	-0.43381	0.12482	0.000763	-0.009613
17.026	-0.002441	-0.12802	0.000153	0.008698	0.033264	0.028839	-0.27542	-0.002289	-0.12085	-0.001831	0.002136	-0.008392	0.026093	0.012054	-0.004883	0.00061	0.005341	-0.036469	-0.010529	-0.14969	-0.030823	-0.079803	-0.13184	0.031738	-0.006256	0.063324	0.047913	-0.016632	-0.17838	0.11414	-0.002747	-0.00946
17.027	0.010834	-0.11765	-0.016937	0.003357	-0.034332	-0.032806	-0.31876	0.002899	-0.077362	-0.001984	-0.014648	-0.003052	0.021362	0.023193	-0.001984	-0.00061	0.019379	0.010986	0.050659	-0.051117	-0.070648	-0.081177	-0.14923	-0.024872	-0.010681	0.005188	-0.010376	0.014496	0.084534	-0.021667	-0.001373	-0.007629
17.028	0.016479	-0.15762	-0.011139	0.006409	-0.024109	-0.069885	-0.24323	-0.001831	0	-0.002594	-0.020752	-0.01236	0.010376	0.011444	0.001526	-0.001831	0.046539	0.057373	0.14755	0.03479	-0.088806	0.007629	-0.12482	-0.088348	-0.017242	-0.057831	-0.054321	0.031128	0.35782	-0.091248	-0.002441	-0.000916
17.029	0.077209	-0.13397	0.024261	0.005646	0.029297	-0.096283	-0.16541	0.004578	0.088501	-0.00061	-0.020447	-0.009766	0.023041	0.029144	-0.00061	0.002136	0.056	0.032654	0.081024	0.1088	-0.1416	0.071259	-0.12589	-0.084076	-0.022736	0.035095	-0.01358	0.037384	0.44907	-0.2066	0.000916	0.000153
17.03	0.014648	-0.16632	0.034943	0.010529	0.025635	-0.054779	-0.13534	-0.004272	0.15854	-0.009918	-0.022278	-0.009155	0.019989	-0.007019	-0.017548	-0.007782	0.037537	0.030365	0.14252	0.16983	-0.13397	0.15411	-0.18112	-0.023956	-0.006714	0.066986	-0.031281	0.003815	0.45212	-0.19852	-0.000763	-0.005188
17.031	0.02533	-0.16525	0.018921	0.007782	0.019836	-0.031891	-0.11398	-0.003815	0.15381	0.010376	0.016174	-0.005341	0.025024	0.002289	-0.016479	-0.001373	0.00473	0.024719	0.1326	0.096893	-0.13901	0.14038	-0.13519	0.013123	-0.012054	0.059204	-0.032501	-0.008087	0.43716	-0.097961	-0.000763	0.005188
17.032	0.020905	-0.17288	0.054169	0.015869	-0.005646	0.014343	-0.11124	-0.009613	0.18677	-0.003967	0.050507	0.000153	-0.000153	0.027161	-0.023346	-0.008545	-0.023041	0.055542	0.079193	-0.036316	0.065613	0.0737	-0.085907	0.010071	-0.016632	0.06485	0.006409	-0.011139	-0.22278	0.019226	-0.003815	0.002441
17.033	0.007019	-0.13443	0.040131	0.012207	-0.052643	0.039215	-0.064392	-0.012207	0.18768	0.005341	0.050201	-0.009613	0	0.022278	0.070953	0.008392	-0.009308	0.066071	0.052185	-0.019379	0.16693	0.033875	-0.15595	0.027618	-0.013275	0.073853	0.048828	-0.008392	-0.63583	0.038605	-0.003815	-0.004578
17.034	-0.001678	-0.10208	0.041504	-0.008545	-0.087433	-0.058899	-0.098114	0.000916	0.14542	0.007172	0.046539	-0.007172	-0.007019	0.029449	0.12756	0.004425	-0.015411	0.049896	0.040436	-0.036469	0.15213	0.035858	-0.14877	0.018616	-0.016785	0.068054	0.022583	0.008698	-0.39307	-0.050354	0.001221	-0.005951
17.035	0.002747	-0.13992	0.022278	-0.007324	-0.050507	0.008698	-0.17639	0.018158	0.074921	0.013428	0.042572	-0.007782	-0.00473	0.048676	0.16724	0.002899	-0.013123	0.11108	0.083313	-0.026398	0.1329	0.020752	-0.11795	-0.035706	-0.032043	0.052643	-0.002594	-0.004425	-0.088959	0.001068	-0.003357	-0.012054
17.036	0.005035	-0.16678	-0.006866	-0.014954	-0.005341	0.081177	-0.17578	-0.000763	0.070648	-0.018616	0.010986	-0.002747	0.066833	0.074768	-0.059509	0.003967	-0.010223	0.12192	0.10422	-0.017395	0.029602	0.084686	-0.13123	0.00885	-0.014954	0.06424	-0.023193	-0.016937	0.34714	-0.027313	-0.00061	-0.015106
17.037	0.01297	-0.15778	-0.037842	0.01358	-0.011139	0.15091	-0.10895	0.005035	0.035095	-0.03479	0.10361	-0.01709	0.078278	0.077667	0.032806	0.003662	0.009308	0.13382	0.11948	0.027008	-0.11169	0.14786	-0.15778	0.005188	-0.005188	0.026855	-0.039673	-0.032654	0.61188	-0.16434	-0.005951	-0.015564
17.038	0.00824	-0.19806	-0.051575	0.027618	-0.006256	0.20279	-0.02243	-0.007477	-0.032501	-0.031128	0.18356	-0.011139	0.063324	0.093079	0.17914	0.003052	0.053406	0.11169	0.07782	0.071259	-0.066833	0.096893	-0.15915	-0.003662	-0.014191	-0.029907	-0.014954	0.040436	0.52475	-0.048981	-0.002289	-0.017853
17.039	-0.000763	-0.17487	-0.061493	0.022278	-0.040741	0.068512	-0.015411	0.002747	-0.097656	-0.02594	0.070496	-0.009613	0.054016	0.074768	-0.093689	-0.002899	0.071411	0.10254	0.067596	0.096741	-0.048828	0.071106	-0.16571	-0.014648	-0.030365	-0.049744	0.026398	-0.014801	0.34897	-0.047302	-0.000458	-0.01709
17.04	-0.004578	-0.1358	-0.071716	0.004425	-0.043793	-0.035553	0.000458	0.004578	-0.14908	0.008392	-0.0737	-0.00351	-0.035553	0.062256	-0.20187	-0.009918	0.063324	0.076599	0.015411	0.06958	-0.054474	0.036469	-0.15243	-0.028076	-0.014496	-0.054016	0.038147	-0.027161	0.38162	-0.17151	-0.003967	-0.018005
